<?xml version="1.0" encoding="UTF-8"?>
<svg id="Layer_2" data-name="Layer 2" xmlns="http://www.w3.org/2000/svg" viewBox="0 0 244.02 267.33">
  <defs>
    <style>
      .cls-1 {
        fill: #fff;
      }
    </style>
  </defs>
  <g id="Layer_1-2" data-name="Layer 1">
    <path class="cls-1" d="M241.2,66.67c-15.8-8.11-49.59-22.34-98.33-26.46-6.46-.54-13.03-.89-19.52-1.02-7.69-.16-15.62.13-23.56.87-.02,0-.05,0-.08,0-10.92,1.01-22.22,2.89-33.62,5.58-8.26,1.96-16.78,4.39-25.33,7.24-1.06.35-2.57.79-3.11,1.69s-.11,2.28.09,3.38c2.44,13.93,8.7,42.29,16.66,60.22,9.53,21.45,25.4,48.62,37.61,64.19.54.69,1.63.1,1.36-.73-2.88-8.8-9.95-29.61-14.48-36.48-5.14-7.78-5.38-8.52-8.21-13.98h0c2.72-10.24,17.46-55.77,26.85-76.66l20.26,160.17c.29,2.25,2.2,17.65,4.46,17.67h.02c2.25,0,4.16-15.38,4.48-17.61l22.16-159.57c2.94,6.86,6.83,21.39,11.72,35.16,6.28,17.72,11.73,34.78,13.26,40.81-2.96,5.7-3.35,6.69-8.68,14.73-4.19,6.32-10.72,25.65-13.69,34.82-.28.87.89,1.44,1.4.68,8.32-12.51,30.53-48.1,37.24-63.2,7.26-16.34,13.1-41.36,15.93-56.21,11.98,3.93,21.45,8.04,28.23,11.36-2.16,19.79-5.17,35.5-9.17,47.96-5.09,15.84-17,52.95-48.82,90.16-15.14,17.71-32.83,33.17-52.62,45.98-21.26-13.71-38.79-28.76-53.5-45.98-31.82-37.21-43.73-74.32-48.82-90.16-8.75-27.27-11.21-68.33-12.08-85.45C50.98,17.11,88.23,8.36,123.17,9.09c31.23.65,57.25,5.9,77.17,11.93,7.88,2.38,43.68,7.99,43.68,7.99C228.62,20.74,186.03,1.35,123.36.04,86.28-.73,46.82,8.7,2.76,28.88c-.84.38-2.04.88-2.5,1.64s-.18,1.77-.13,2.69c.73,15,2.95,60.64,12.65,90.83,5.25,16.37,17.55,54.69,50.55,93.28,15.87,18.56,34.83,34.69,57.96,49.29.74.47,1.58.7,2.42.7s1.67-.23,2.41-.7c21.53-13.59,40.73-30.17,57.08-49.29,33-38.6,45.3-76.92,50.56-93.28,4.4-13.71,7.63-31.01,9.88-52.9.19-1.85-.78-3.63-2.43-4.48ZM64.91,119.42c-.75-1.63-1.5-3.26-2.23-4.91-6.95-15.63-12.58-39.86-15.31-54.26,7.03-2.25,14.02-4.19,20.81-5.8,7.97-1.88,15.89-3.36,23.64-4.39-8.23,16.68-20.8,50.87-26.91,69.37ZM122.49,196.75l-17.19-148.07c6.04-.42,12.02-.57,17.87-.45,6.02.12,12.12.44,18.12.93l-18.79,147.6ZM181.89,114.5c-.69,1.57-1.4,3.12-2.12,4.66-5.71-18.44-17.26-52.12-25.08-68.61,16.27,2.06,30.54,5.23,42.7,8.73-2.67,14.25-8.39,39.24-15.5,55.22Z"/>
  </g>
</svg>